<svg xmlns="http://www.w3.org/2000/svg" viewBox="0 0 512 512">
  <rect width="512" height="512" fill="#b91c1c"/>
  <path fill="#ffffff" transform="translate(34.742 246.000) scale(0.128901 -0.128901)" d="M438 0H151V1474H599L867 315L1133 1474H1576V0H1289V997Q1289 1040 1290.0 1117.5Q1291 1195 1291 1237L1012 0H713L436 1237Q436 1195 437.0 1117.5Q438 1040 438 997Z"/>
  <path fill="#ffffff" transform="translate(254.647 246.000) scale(0.128901 -0.128901)" d="M438 0H151V1474H599L867 315L1133 1474H1576V0H1289V997Q1289 1040 1290.0 1117.5Q1291 1195 1291 1237L1012 0H713L436 1237Q436 1195 437.0 1117.5Q438 1040 438 997Z"/>
  <path fill="#ffffff" transform="translate(56.977 456.000) scale(0.128901 -0.128901)" d="M829 0H161V1474H877Q1148 1470 1261 1317Q1329 1223 1329 1092Q1329 957 1261 875Q1223 829 1149 791Q1262 750 1319.5 661.0Q1377 572 1377 445Q1377 314 1311 210Q1269 141 1206 94Q1135 40 1038.5 20.0Q942 0 829 0ZM822 649H455V256H817Q914 256 968 282Q1066 330 1066 466Q1066 581 971 624Q918 648 822 649ZM975 930Q1035 966 1035 1059Q1035 1162 955 1195Q886 1218 779 1218H455V893H817Q914 893 975 930Z"/>
  <path fill="#ffffff" transform="translate(247.621 456.000) scale(0.128901 -0.128901)" d="M1019 303H476L374 0H52L578 1474H926L1448 0H1114ZM933 557 749 1137 559 557Z"/>
</svg>
