<svg xmlns="http://www.w3.org/2000/svg" viewBox="0 0 512 512">
  <path d="M0 96C0 43 43 0 96 0h320c53 0 96 43 96 96v320c0 53-43 96-96 96H96c-53 0-96-43-96-96V96z"/>
  <path fill="#fff" d="M75 250V116h38l35 78 35-78h38v134h-32v-82l-28 62h-26l-28-62v82H75zm161 0V116h38l35 78 35-78h38v134h-32v-82l-28 62h-26l-28-62v82h-32zM91 399V276h88c25 0 42 15 42 36 0 12-6 23-16 29 14 6 23 17 23 34 0 15-5 27-16 35s-26 12-45 12H91zm35-74h44c10 0 16-5 16-14s-6-14-16-14h-44v28zm0 52h47c12 0 19-5 19-16 0-10-7-15-19-15h-47v31zm110 22 53-123h38l53 123h-38l-9-24h-51l-9 24h-37zm57-54h29l-14-38-15 38z"/>
</svg>
